<?xml version="1.0" encoding="UTF-8"?><svg id="Layer_2" xmlns="http://www.w3.org/2000/svg" viewBox="0 0 136.32 131.81"><defs><style>.cls-1{fill:#004a98;}</style></defs><g id="Layer_1-2"><path class="cls-1" d="M26.4.38c-.24-.18-.3-.46-.72-.36v119.69l.36.36h8.76V7.93c-.21-.02-.44-.08-.6-.23-2.3-2.24-5.32-5.42-7.8-7.32Z"/><path class="cls-1" d="M88.8,50.58v69.49h8.88v-61.58c-.29-.01-.52-.15-.73-.34-2.66-2.59-5.42-5.06-8.16-7.56Z"/><polygon class="cls-1" points="114.48 120.07 123.24 120.07 123.6 119.71 123.6 66.28 114.48 57.77 114.48 120.07"/><polygon class="cls-1" points="127.44 69.75 127.44 120.07 136.32 120.07 136.32 77.78 127.44 69.75"/><polygon class="cls-1" points="64.32 100.78 64.32 111.56 72.72 119.47 73.44 119.83 73.44 109.53 75.84 109.53 75.84 119.71 76.2 120.07 84.96 120.07 84.96 100.42 64.68 100.42 64.32 100.78"/><polygon class="cls-1" points="0 120.07 8.76 120.07 9.12 119.71 9.12 101.98 0 93.47 0 120.07"/><polygon class="cls-1" points="38.64 120.07 47.4 120.07 47.76 119.71 47.76 101.98 38.64 93.47 38.64 120.07"/><path class="cls-1" d="M12.96,120.07h8.88v-18.33c-3.08-2.55-5.73-5.59-8.88-8.03v26.36Z"/><polygon class="cls-1" points="101.76 120.07 110.64 120.07 110.64 101.98 101.76 93.71 101.76 120.07"/><polygon class="cls-1" points="51.6 99.82 60.48 107.85 60.48 89.76 51.6 81.73 51.6 99.82"/><path class="cls-1" d="M0,78.5c2.78,2.45,5.49,5.68,8.4,7.91.24.19.3.46.72.36v-8.75L0,69.75v8.75Z"/><path class="cls-1" d="M38.64,90.48l9.12,8.51v-8.99c-2.97-2.83-5.98-5.64-9.12-8.27v8.75Z"/><path class="cls-1" d="M0,90.48c2.08,1.98,4.12,4.05,6.24,5.99.6.55,1.57,1.46,2.16,1.92.24.18.3.46.72.36v-8.75L0,81.73v8.75Z"/><polygon class="cls-1" points="101.76 90.72 110.64 98.98 110.64 89.76 101.76 81.73 101.76 90.72"/><polygon class="cls-1" points="101.76 78.74 110.64 87 110.64 77.78 101.76 69.75 101.76 78.74"/><polygon class="cls-1" points="51.6 111.8 60.48 119.83 60.48 110.85 51.6 102.82 51.6 111.8"/><path class="cls-1" d="M51.6,123.9s.44.07.73.34c2.66,2.58,5.3,5.21,8.15,7.56v-8.99l-8.88-8.03v9.11Z"/><path class="cls-1" d="M89.52,43.03c-.24-.19-.3-.46-.72-.36v5.27s.39.03.6.23c2.3,2.24,5.32,5.42,7.8,7.32.24.18.3.46.72.36v-5.15l-1.68-1.44c.2-.3,1.68-1.56,1.68-1.68v-5.15l-4.68,4.03c-1.21-1.06-2.45-2.46-3.72-3.43Z"/></g></svg>