<?xml version="1.0" encoding="UTF-8"?><svg id="Layer_2" xmlns="http://www.w3.org/2000/svg" viewBox="0 0 343.44 50.08"><defs><style>.cls-1{fill:#707272;}</style></defs><g id="Layer_1-2"><path class="cls-1" d="M334.56,5.15l-1.68-1.08v15.58h-6.24v-5.15c0-.08-.32-.36-.24-.6h-7.44v5.75h-5.76v-5.75h-7.68v7.19h6.24v3.35h-4.44l-1.08,1.44h7.2v-4.79h21.12V5.15ZM311.76,19.65h-4.56v-4.31h4.56v4.31ZM324.96,19.65h-4.56v-3.71c0-.88,4.56-.88,4.56,0v3.71Z"/><path class="cls-1" d="M66.12,15.34h7.2l.36.36v3.95h-13.92v-6.11l-1.44-1.08v7.19h-7.44v-5.39l-.36-.36h-7.32v5.75h-5.52v-11.62l-1.68-1.08v14.14h39.12v-7.19h-10.08l1.08,1.44ZM49.2,19.65h-4.2c-.64-.55-.54-4.31.24-4.31h3.6l.36.36v3.95Z"/><path class="cls-1" d="M300.96,16.05l-1.68-.96v4.55h-4.32v-3.47l-1.44-1.08v4.55h-3.36v-3.47l-1.68-1.08v4.55h-6.48v-3.47l-1.44-1.08v4.55h-4.32v-3.47l-1.44-1.08v4.55h-3.36v-3.47l-1.68-1.32v4.79h-5.64l-.36-.36v-5.99c0-.1-1.17-1.18-1.44-1.32v1.92h-6v7.19h44.64v-5.03ZM262.32,19.65h-4.56v-4.31h4.56v4.31Z"/><path class="cls-1" d="M151.68,19.65h-6.24v-6.11l-1.44-1.08v7.19h-7.2v-6.11l-1.44-1.08v7.19h-8.16V5.63l-1.68-1.32v16.77h33.6v-7.19h-7.44v5.75ZM153.12,15.93c0-.88,4.56-.88,4.56,0v3.71h-4.56v-3.71Z"/><polygon class="cls-1" points="190.32 8.03 188.64 6.95 188.64 19.65 182.88 19.65 182.88 5.39 181.44 4.31 181.44 19.65 175.2 19.65 175.2 13.54 173.76 12.46 173.76 19.65 165.12 19.65 165.12 7.31 163.44 5.75 163.44 21.09 190.32 21.09 190.32 8.03"/><path class="cls-1" d="M24.24,15.34h5.88l1.08-1.44h-8.64v5.75h-6v-6.11l-1.44-.84v6.95h-6.96v-6.35c0-.1-1.17-1.18-1.44-1.32v1.92H.72v7.19h31.2v-1.44h-7.68v-4.31ZM6.72,19.65H2.16v-4.31h4.56v4.31Z"/><polygon class="cls-1" points="244.32 5.27 242.88 4.55 242.88 19.65 234 19.65 234 15.34 237.72 15.34 238.8 13.9 232.56 13.9 232.56 19.65 225.6 19.65 225.6 5.63 223.92 4.55 223.92 21.09 244.32 21.09 244.32 5.27"/><path class="cls-1" d="M211.2,13.9v5.75h-6.72v-6.35c0-.1-1.17-1.18-1.44-1.32v1.92h-6.24v7.19h22.08v-6.83l-.36-.36h-7.32ZM203.04,19.65h-4.56v-4.31h4.2l.36.36v3.95ZM217.2,19.65h-4.56v-3.71s.56-.6.6-.6h3.6l.36.36v3.95Z"/><polygon class="cls-1" points="89.28 19.65 84.6 19.65 84.24 19.29 84.24 8.03 82.8 6.95 82.8 19.65 78.96 19.65 78.96 21.09 90.96 21.09 90.96 5.27 89.28 4.31 89.28 19.65"/><polygon class="cls-1" points="121.2 13.54 119.76 12.46 119.76 19.65 105.36 19.65 105.36 13.78 103.68 12.46 103.68 21.09 121.2 21.09 121.2 13.54"/><path class="cls-1" d="M43.56,33.07h-5.76l-.36.36v12.58h1.68v-5.03h4.92c.07,0,1.08-.59,1.21-.71,1.15-1.1,1.14-4.86.12-6.12-.28-.35-1.46-1.07-1.8-1.07ZM42.84,39.78h-3.72v-5.51c1.22.03,4.29-.26,5.02.86.67,1.05.48,4.65-1.3,4.65Z"/><path class="cls-1" d="M60.72,38.34v-5.27h-1.44v12.7c5.2,1.25,8.76.86,8.16-5.39-.41-4.24-3.91-4.45-6.72-2.04ZM60.72,44.81v-5.51c1.78-1.16,4.77-2.33,5.05.83.38,4.27-.54,5.65-5.05,4.68Z"/><path class="cls-1" d="M220.8,36.3c-.02-3.1,4.54-1.78,6.49-1.8v-1.19c-3.75-.19-8.47-1.77-7.93,3.71.46,4.68,6.95,1.9,6.97,5.74.02,3.42-4.51,1.98-6.72,2.04l.03,1.17c1.68.24,5.49.69,6.91-.11,1.57-.88,1.65-4.33.61-5.6-1.64-2-6.33-.55-6.35-3.96Z"/><path class="cls-1" d="M276.24,36.3c-.02-3.1,4.54-1.78,6.49-1.8v-1.19c-3.77-.19-8.41-1.78-7.93,3.71.4,4.65,6.95,1.91,6.97,5.73.02,3.42-4.51,1.98-6.72,2.04l.03,1.17c1.68.24,5.49.69,6.91-.11,1.57-.88,1.65-4.33.61-5.6-1.64-2-6.33-.55-6.35-3.96Z"/><path class="cls-1" d="M261.48,37.38c-1.36-1.07-4.89-.24-6.6-.23l.25,1.19c2.12-.15,6.4-1.38,5.75,2.16h-4.44c-.68,0-1.48.73-1.74,1.38-.99,2.53.37,4.69,3.18,4.37,1.27-.14,2.12-1.04,3.23-1.44v1.2h1.2v-7.55c0-.15-.64-.93-.84-1.08ZM257.4,45.06c-2.14-.03-1.34-3.36-.72-3.36h4.2c.59,2.23-1.52,3.39-3.48,3.36Z"/><path class="cls-1" d="M291.56,37.06c-.98-.26-2.84-.28-3.81-.06-1.87.43-2.29,2.14-2.39,3.84-.36,5.79,2.8,5.89,7.68,5.15v-1.19c-2.25.39-6.21,1.02-5.99-2.4h4.2c2.73,0,2.92-4.67.32-5.35ZM286.8,41.21c.33-2.27.44-3.23,3.01-3.13,3.21.14,1.95,3.13,1.43,3.13h-4.44Z"/><path class="cls-1" d="M18.9,37.08c-1.87-.8-3.89.37-5.46,1.26v-5.27h-1.44v12.94h1.44v-6.35c.67-1.02,5.04-2.56,5.04-.72v7.07h1.44v-7.79c0-.24-.72-1.01-1.02-1.14Z"/><path class="cls-1" d="M28.76,37.06c-.98-.26-2.84-.28-3.81-.06-1.87.43-2.29,2.14-2.39,3.84-.36,5.79,2.8,5.89,7.68,5.15v-1.19c-2.25.39-6.21,1.02-5.99-2.4h4.2c2.73,0,2.92-4.67.32-5.35ZM24,41.21c.26-2.26.51-3.23,3.01-3.13,3.21.14,1.95,3.13,1.43,3.13h-4.44Z"/><path class="cls-1" d="M204.13,37.61c-1.55-1.25-5.56-1.09-6.72.73-.97,1.53-.91,5.8.43,7.1,1.28,1.24,5.46,1.21,6.64-.27,1.23-1.54,1.26-6.26-.36-7.56ZM200.05,45.03c-2.12-.35-2.08-5.33-1.03-6.39,1.37-1.37,4.45-.72,4.73,1.73.35,2.99-.16,5.23-3.71,4.66Z"/><path class="cls-1" d="M237.25,37.61c-1.55-1.25-5.56-1.09-6.72.73-.97,1.53-.91,5.8.43,7.1,1.28,1.24,5.46,1.21,6.64-.27,1.23-1.54,1.26-6.26-.36-7.56ZM233.17,45.03c-2.12-.35-2.08-5.33-1.03-6.39,1.37-1.37,4.45-.72,4.73,1.73.35,2.99-.16,5.23-3.71,4.66Z"/><path class="cls-1" d="M161.51,37.97c-1.15,1.43-1.12,6.3.36,7.56,1.32,1.11,5.3,1.09,6.46-.26,1.25-1.45,1.21-6.22-.18-7.57-1.28-1.24-5.48-1.17-6.64.27ZM167.74,42.02c-.15,2.54-1.43,3.74-4.07,2.92-2-.62-2.05-6.29.18-6.79,3.03-.68,4.05,1.09,3.89,3.87Z"/><path class="cls-1" d="M102.95,37.01c-1.07.22-1.78,1.04-2.51,1.33-.66.26-.22-1.07-.35-1.2h-1.44v8.87h1.68v-6.71c1.43-.35,2.54-1.63,4.15-1.15.18.05.65.45.65.55v7.31h1.68v-7.07c0-2-2.34-2.25-3.85-1.93Z"/><path class="cls-1" d="M341.79,37.17l-2.8,7.88-3.03-7.88-1.64.08,3.33,8.61c.43.34.75-.13.75.5,0,1.09-1.51,2.5-2.62,2.54l.1,1.18c1.65-.31,2.72-.99,3.52-2.48,1.65-3.07,2.47-7.27,4.04-10.46l-1.65.03Z"/><path class="cls-1" d="M311.28,43.73c-1.17,1.11-4.8,2.44-4.8-.24v-6.35h-1.44v7.31c0,.07.46,1.14.55,1.25,1.05,1.27,4.79.39,5.81-.89l.39,1.17,1.17.03v-8.87h-1.68v6.59Z"/><path class="cls-1" d="M187.2,34.62v11.38h1.44v-5.63l.36-.36h5.16v-1.2h-5.52c-.04-.71-.19-4.31.84-4.31h5.4v-1.2h-6.36c-.28,0-1.32,1.04-1.32,1.32Z"/><path class="cls-1" d="M110.86,40.16c-.45-.59-.16-2.06.38-2.06h5.16l.24-.96c-1.85-.12-6.77-1.16-7.34,1.18-1.15,4.74,4.39,3.02,5.77,4.58.73.82.24,1.95-.71,2.15-1.32.28-3.49-.21-4.92,0-.04.79-.15.99.65,1.13,1.6.29,5.86.53,6.54-1.26,1.77-4.67-4.72-3.39-5.77-4.76Z"/><path class="cls-1" d="M179.04,37.27c-1.58-1.1-4.23.05-5.64,1.07l-.39-1.17-1.17-.03v8.87h1.44v-6.35c.67-1.02,5.04-2.56,5.04-.72v7.07h1.44v-7.79c0-.13-.54-.83-.72-.95Z"/><path class="cls-1" d="M144.72,43.49c-.56,1.19-4.8,2.41-4.8.72v-7.07h-1.44v7.79c0,.13.54.83.72.95,1.5,1.04,4.34.06,5.64-1.07l.12,1.2h1.2v-8.87h-1.44v6.35Z"/><path class="cls-1" d="M54.72,43.85c-.73.64-4.8,2.11-4.8.36v-7.07h-1.44v7.79c0,.13.54.83.72.95,1.5,1.04,4.34.06,5.64-1.07l.12,1.2h1.2v-8.87h-1.44v6.71Z"/><polygon class="cls-1" points="0 34.5 4.32 34.5 4.32 46.01 5.76 46.01 5.76 34.5 9.84 34.5 9.84 33.31 0 33.31 0 34.5"/><path class="cls-1" d="M83.21,45c-2.46-.55-2.25-6.42-.05-6.9.79-.17,2.65,0,3.6,0,.26,0,.46-.69.36-.96-3.16-.43-6.68-1.04-7.17,3.02-.73,5.96,2.1,6.77,7.41,5.84.01-1.73-2.74-.69-4.15-1.01Z"/><path class="cls-1" d="M298.92,38.1h3.72c.18-1.03-.16-1.07-1.11-1.17-4.23-.46-6.32.54-6.1,5.13.23,4.84,3.58,4.51,7.43,3.93l.02-.94h-3.96c-2.45,0-2.56-6.95,0-6.95Z"/><path class="cls-1" d="M243.96,38.1c1-.22,2.63.16,3.72,0l.24-.96c-5.45-1.06-7.98.24-7.18,6.09.52,3.81,4.27,3.21,7.15,2.75l.02-1.17c-1.01.3-2.88.42-3.91.19-2.52-.56-2.43-6.38-.05-6.9Z"/><path class="cls-1" d="M124.56,37.98v-.84s-2.9-.11-2.9-.11l-.22-2.77h-1.44v2.88s-1.68,0-1.68,0v.84s1.68.12,1.68.12v6.35c0,.07.47,1.18.54,1.26.51.56,3.31.83,3.68.32.63-2.23-2.15-.34-2.67-1.92-.18-.57-.21-5.49,0-5.78l3.02-.35Z"/><path class="cls-1" d="M133.44,44.21v-6.11h2.88v-.96h-2.88s-.14-2.88-.14-2.88h-1.3s-.1,2.66-.1,2.66l-1.58.23v.96c.52.03,1.45-.21,1.65.39.44,3.73-1.76,9.24,4.36,7.51l-.25-1.18c-.16-.17-2.36.36-2.63-.61Z"/><path class="cls-1" d="M151.84,44.82c-.15-.04-.39-.49-.4-.61-.29-1.78.21-4.25,0-6.11h2.88v-.96h-2.88s-.14-2.88-.14-2.88h-1.3s-.1,2.66-.1,2.66l-1.58.23v.96c.52.03,1.45-.21,1.65.39.44,3.73-1.76,9.24,4.36,7.51l-.25-1.18h-2.22Z"/><path class="cls-1" d="M330.34,34.26h-1.3s-.1,2.66-.1,2.66l-1.58.23v.96c.52.03,1.45-.21,1.65.39.35,1.67-.55,5.98.51,7.16.83.93,4.3,1.18,3.61-.84-.58-.08-2.45.26-2.64-.36v-6.35h2.88v-.96h-2.88s-.14-2.88-.14-2.88Z"/><path class="cls-1" d="M71.52,43.97v-10.9h-1.44v11.62c0,1.52,2.45,1.88,3.61,1.45.94-2.13-2.17-.72-2.17-2.17Z"/><path class="cls-1" d="M266.88,44.21v-11.14h-1.44v11.86c0,1.19,2.68,1.67,3.61,1.21l-.02-1.31c-.48.08-2.15-.01-2.15-.61Z"/><rect class="cls-1" x="93.84" y="33.31" width="1.68" height="12.7"/><polygon class="cls-1" points="250.32 7.67 248.88 6.95 248.88 21.09 250.32 21.09 250.32 7.67"/><polygon class="cls-1" points="95.52 21.09 96.96 21.09 96.96 8.03 95.52 6.95 95.52 21.09"/><polygon class="cls-1" points="340.32 8.03 338.88 6.95 338.88 21.09 340.32 21.09 340.32 8.03"/><path class="cls-1" d="M317.64,38.34c-.59.23-.36-.99-.63-1.16l-1.17-.03v8.87h1.68v-6.71c1.21-.94,4.34-.61,4.08-2.4-1.54-.18-2.86.41-3.97,1.43Z"/><path class="cls-1" d="M209.64,38.34c-.59.23-.36-.99-.63-1.16l-.93-.03v8.87h1.44v-6.71c1.21-.94,4.34-.61,4.08-2.4-1.54-.18-2.86.41-3.97,1.43Z"/><rect class="cls-1" x="323.52" y="37.14" width="1.44" height="8.87"/><rect class="cls-1" x="156.48" y="37.14" width="1.44" height="8.87"/><rect class="cls-1" x="126.72" y="37.14" width="1.44" height="8.87"/><rect class="cls-1" x="75.84" y="37.14" width="1.44" height="8.87"/><rect class="cls-1" x="250.32" y="37.14" width="1.44" height="8.87"/><path class="cls-1" d="M113.88,8.43l-1.32,1.63,2.07,1.67c2.21-1.23.81-2.34-.76-3.29Z"/><path class="cls-1" d="M258.6,6.28l-1.32,1.63,2.07,1.67c2.21-1.23.81-2.34-.76-3.29Z"/><polygon class="cls-1" points="265.14 7.78 263.16 6.05 261.84 7.66 263.88 9.34 265.14 7.78"/><path class="cls-1" d="M111.33,10.47c-.1-.37-1.5-1.7-1.97-1.58-.25.07-1.16.97-1.11,1.26l1.99,1.81c.41-.36,1.24-.9,1.09-1.49Z"/><polygon class="cls-1" points="13.17 25.31 11.19 23.49 10.11 25.01 12.12 26.81 13.17 25.31"/><path class="cls-1" d="M17.7,25.04l-1.95-1.78-1.35,1.3c1.26,1.21,2.15,2.96,3.3.48Z"/><path class="cls-1" d="M60.94,7.82l-1.99-1.81c-.39.25-1.16,1.05-1.08,1.5l2,1.83,1.06-1.52Z"/><path class="cls-1" d="M205.18,7.82l-1.99-1.81c-.39.25-1.16,1.05-1.08,1.5l2,1.83,1.06-1.52Z"/><path class="cls-1" d="M3.36,9.58l.87-1.45-1.95-1.9-1.31,1.56c.51.17,2.03,2.04,2.38,1.79Z"/><path class="cls-1" d="M178.74,7.79c-.16-.24-.31-.55-.51-.76-.39-.4-1.12-.74-1.47-1.28l-1.3,1.55,2.25,1.8,1.03-1.31Z"/><path class="cls-1" d="M174.2,7.82l-1.97-1.58c-.39.33-1.27.94-1.1,1.51,1.42,1.12,2.17,2.63,3.07.07Z"/><path class="cls-1" d="M142.68,23.49l-1.32,1.55,2.04,1.8c2.13-1.66.65-2.04-.72-3.35Z"/><path class="cls-1" d="M200.61,8.08l-1.77-1.84-1.3,1.52,2.02,1.82c.37-.42,1.22-.88,1.05-1.5Z"/><path class="cls-1" d="M138.94,8.3l-1.99-1.81c-.39.25-1.16,1.05-1.08,1.5l2,1.83,1.06-1.52Z"/><path class="cls-1" d="M56.36,8.06l-1.76-1.83-1.3,1.52,2.02,1.82c.35-.31,1.14-1.04,1.04-1.51Z"/><path class="cls-1" d="M8.6,7.82l-2-1.83-1.09,1.55,2.04,1.8c.34-.32,1.14-1.04,1.04-1.52Z"/><path class="cls-1" d="M147.03,23.26c-.37.22-1.19,1.12-1.1,1.52l2.02,1.82,1.06-1.52-1.99-1.81Z"/><polygon class="cls-1" points="72.2 25.31 70.08 23.48 69.13 25.02 71.16 26.83 72.2 25.31"/><path class="cls-1" d="M166.44,3.83c.75-.84-.6-1.92-.6-2.04,0-.1,1.18-1,.71-1.8l-1.56,1.19-1.32-1.19c-.24,1.7,1.84,2.61,2.76,3.83Z"/><path class="cls-1" d="M311.88,10.3c.39-.71-.02-1.37-.6-1.8.94-.41.75-.85.71-1.8l-1.31,1.14-1.56-1.14c-.25,1.65,1.71,2.62,2.76,3.59Z"/><path class="cls-1" d="M323.52,34.99h1.68c.5-2.69-2.18-2.7-1.68,0Z"/><path class="cls-1" d="M250.32,34.99h1.68c.5-2.69-2.18-2.7-1.68,0Z"/><path class="cls-1" d="M126.48,34.99h1.68c.5-2.69-2.18-2.7-1.68,0Z"/><path class="cls-1" d="M75.6,34.99h1.68c.5-2.69-2.18-2.7-1.68,0Z"/><path class="cls-1" d="M156.58,33.29l-.11,1.69c1.69.22,2.05-.37,1.41-1.88l-1.3.19Z"/></g></svg>